# xmcd
#
# Track frame offsets:
#	150
#	16275
#	34836
#	57121
#	73317
#	91839
#	108266
#	124872
#	142884
#	160258
#	182265
#	200588
#	220663
#	236606
#	253661
#
# Disc length: 3607 seconds
#
# Revision: 1
# Processed by: cddbd v1.5.2PL0 Copyright (c) Steve Scherf et al.
# Submitted via: EasyCDDAExtractor 15.3.0.1
#
DISCID=ca0e150f
DTITLE=Ednita Nazario - 30 Exitos Insuperables - CD 2
DYEAR=2003
DGENRE=Latin
TTITLE0=No Voy A Llorar
TTITLE1=Dime Tu
TTITLE2=Tu Sabes Bien
TTITLE3=Perdiendo Tu Amor
TTITLE4=Que No Acabe El Amor
TTITLE5=Corazon
TTITLE6=Lloviendo Flores
TTITLE7=Espiritu Libre
TTITLE8=Ultima Vez
TTITLE9=Mas Grande Que Grande
TTITLE10=Un Beso
TTITLE11=Gata Sin Luna
TTITLE12=Te Quiero
TTITLE13=No Me Digas Adios
TTITLE14=Evolucion
EXTD=
EXTT0=
EXTT1=
EXTT2=
EXTT3=
EXTT4=
EXTT5=
EXTT6=
EXTT7=
EXTT8=
EXTT9=
EXTT10=
EXTT11=
EXTT12=
EXTT13=
EXTT14=
PLAYORDER=
